<?xml version="1.0" encoding="UTF-8"?><svg xmlns="http://www.w3.org/2000/svg" xmlns:xlink="http://www.w3.org/1999/xlink" version="1.1" id="Layer_1" x="0px" y="0px" viewBox="0 0 16 16" xml:space="preserve"><path d="M8 0C3.589 0 0 3.589 0 8c0 3.291 2.063 6.288 5.132 7.457a.502.502 0 0 0 .655-.318l1.5-4.79a.5.5 0 0 0-.235-.587A2.018 2.018 0 0 1 6 8c0-1.103.897-2 2-2s2 .897 2 2c0 .729-.403 1.404-1.052 1.763a.498.498 0 0 0-.235.587l1.5 4.79a.502.502 0 0 0 .655.318C13.938 14.288 16 11.291 16 8c0-4.411-3.589-8-8-8z" fill="#4CAF50"/><metadata><rdf:RDF xmlns:rdf="http://www.w3.org/1999/02/22-rdf-syntax-ns#" xmlns:rdfs="http://www.w3.org/2000/01/rdf-schema#" xmlns:dc="http://purl.org/dc/elements/1.1/"><rdf:Description about="https://iconscout.com/legal#licenses" dc:title="open,source,logo,color,e" dc:description="open,source,logo,color,e" dc:publisher="Iconscout" dc:date="2018-02-17" dc:format="image/svg+xml" dc:language="en"><dc:creator><rdf:Bag><rdf:li>Pixel Icons</rdf:li></rdf:Bag></dc:creator></rdf:Description></rdf:RDF></metadata></svg>