<svg xmlns="http://www.w3.org/2000/svg" fill="none" viewBox="0 0 20 20">
  <path fill="#61DAFB" d="M9.625 8.5a1.665 1.665 0 110 3.33 1.665 1.665 0 010-3.33z"/>
  <path fill="#61DAFB" d="M15.63 7.264a12.877 12.877 0 00-.6-.19c.034-.135.065-.271.094-.409.453-2.204.157-3.98-.858-4.566-.972-.56-2.562.025-4.169 1.423-.158.137-.312.28-.463.425a11.816 11.816 0 00-.309-.285C7.642 2.167 5.954 1.538 4.941 2.124c-.97.562-1.258 2.232-.85 4.322.041.207.087.412.138.617-.238.068-.47.14-.689.217C1.564 7.968.305 9.047.305 10.165c0 1.155 1.353 2.314 3.409 3.016.166.057.334.11.504.158-.055.22-.104.442-.147.665-.39 2.053-.085 3.684.883 4.243 1.001.577 2.68-.016 4.317-1.446.129-.113.259-.233.389-.359.163.159.33.312.503.46 1.584 1.364 3.149 1.914 4.117 1.354 1-.58 1.325-2.33.903-4.461a11.1 11.1 0 00-.112-.499c.118-.034.233-.07.347-.108 2.137-.708 3.527-1.852 3.527-3.023 0-1.123-1.301-2.208-3.315-2.9zm-5.01-3.142c1.376-1.198 2.662-1.67 3.249-1.332.624.36.867 1.811.474 3.715a9.184 9.184 0 01-.083.37 19.074 19.074 0 00-2.492-.394 18.7 18.7 0 00-1.576-1.966c.14-.135.282-.266.428-.393zM5.81 11.12a23.156 23.156 0 001.113 1.923 16.932 16.932 0 01-1.718-.277c.165-.531.368-1.085.605-1.646zm-.001-1.872a17.574 17.574 0 01-.592-1.612c.558-.124 1.122-.221 1.69-.291a23.378 23.378 0 00-1.098 1.903zm.423.936a22.386 22.386 0 011.697-2.94 22.561 22.561 0 013.397 0 25.978 25.978 0 011.702 2.93 23.707 23.707 0 01-.8 1.508c-.283.49-.582.972-.895 1.443a25.77 25.77 0 01-3.394.007 22.337 22.337 0 01-1.707-2.948zm6.685 1.896c.188-.325.368-.655.54-.989.237.536.446 1.084.626 1.642a16.93 16.93 0 01-1.738.297c.197-.313.387-.629.572-.948v-.002zm.532-2.832a26.904 26.904 0 00-1.103-1.902c.595.076 1.165.175 1.7.298a17 17 0 01-.597 1.604zM9.634 5.084c.387.423.753.865 1.096 1.324a23.217 23.217 0 00-2.202 0 17.42 17.42 0 011.106-1.324zM5.34 2.813c.624-.362 2.002.154 3.456 1.444.093.082.186.168.28.257A19.08 19.08 0 007.486 6.48c-.836.075-1.667.204-2.486.386-.048-.19-.09-.381-.128-.574-.351-1.79-.119-3.14.467-3.48zm-.91 9.759a10.314 10.314 0 01-.46-.144 6.743 6.743 0 01-2.174-1.155 1.644 1.644 0 01-.695-1.108c0-.679 1.011-1.544 2.699-2.133.212-.074.426-.141.641-.202.251.804.555 1.59.909 2.354a19.393 19.393 0 00-.92 2.388zm4.316 3.63a6.744 6.744 0 01-2.087 1.306 1.645 1.645 0 01-1.307.049c-.588-.34-.833-1.648-.5-3.404.04-.208.086-.414.136-.619.829.178 1.668.3 2.513.364.49.693 1.024 1.354 1.6 1.977-.116.112-.234.22-.355.326zm.909-.9c-.396-.429-.77-.877-1.122-1.343a27.807 27.807 0 002.216-.003c-.342.467-.707.917-1.094 1.346zm4.836 1.107a1.645 1.645 0 01-.61 1.157c-.588.34-1.844-.102-3.2-1.267a11.543 11.543 0 01-.468-.427 18.69 18.69 0 001.563-1.984c.85-.072 1.693-.202 2.524-.39.038.154.071.304.1.451.181.808.212 1.642.09 2.46zm.676-3.977a7.857 7.857 0 01-.314.098 18.694 18.694 0 00-.943-2.361c.354-.755.657-1.532.907-2.327.19.055.376.113.554.175 1.724.593 2.777 1.472 2.777 2.148 0 .721-1.136 1.656-2.981 2.267z"/>
</svg>
