<?xml version="1.0" encoding="UTF-8" standalone="no"?>
<svg
   xmlns:dc="http://purl.org/dc/elements/1.1/"
   xmlns:cc="http://creativecommons.org/ns#"
   xmlns:rdf="http://www.w3.org/1999/02/22-rdf-syntax-ns#"
   xmlns:svg="http://www.w3.org/2000/svg"
   xmlns="http://www.w3.org/2000/svg"
   xmlns:sodipodi="http://sodipodi.sourceforge.net/DTD/sodipodi-0.dtd"
   xmlns:inkscape="http://www.inkscape.org/namespaces/inkscape"
   viewBox="0 0 143.86 320.16998"
   version="1.1"
   id="svg1038"
   sodipodi:docname="feature_1.svg"
   inkscape:version="1.0.1 (c497b03c, 2020-09-10)"
   width="143.86"
   height="320.16998">
  <metadata
     id="metadata1042">
    <rdf:RDF>
      <cc:Work
         rdf:about="">
        <dc:format>image/svg+xml</dc:format>
        <dc:type
           rdf:resource="http://purl.org/dc/dcmitype/StillImage" />
        <dc:title>Startup_SVG</dc:title>
      </cc:Work>
    </rdf:RDF>
  </metadata>
  <sodipodi:namedview
     pagecolor="#ffffff"
     bordercolor="#666666"
     borderopacity="1"
     objecttolerance="10"
     gridtolerance="10"
     guidetolerance="10"
     inkscape:pageopacity="0"
     inkscape:pageshadow="2"
     inkscape:window-width="1440"
     inkscape:window-height="717"
     id="namedview1040"
     showgrid="false"
     inkscape:zoom="1.0226025"
     inkscape:cx="117.68707"
     inkscape:cy="153.04271"
     inkscape:window-x="0"
     inkscape:window-y="25"
     inkscape:window-maximized="0"
     inkscape:current-layer="svg1038"
     inkscape:document-rotation="0"
     fit-margin-top="0"
     fit-margin-left="0"
     fit-margin-right="0"
     fit-margin-bottom="0" />
  <defs
     id="defs835">
    <style
       id="style833">.cls-1,.cls-11,.cls-9{fill:#d6d8e5;}.cls-1{opacity:0.15;}.cls-2,.cls-3{fill:#edeff9;}.cls-2{opacity:0.5;}.cls-4{fill:#ffbc00;}.cls-5{fill:#8c50ff;}.cls-6{fill:#424956;}.cls-7{fill:#494949;}.cls-8{fill:#2b303f;}.cls-9{opacity:0.4;}.cls-10{fill:#b1b4c4;}.cls-12{fill:#9ea1af;}.cls-13{fill:#c4c7d6;}.cls-14{fill:#e4e7f2;}.cls-15{fill:#fff;}.cls-16{fill:#e9eaf2;}.cls-17{fill:#f5f6ff;}.cls-18,.cls-19{fill:none;stroke:#e9eaf2;stroke-miterlimit:10;}.cls-18{stroke-width:0.31px;}.cls-19{stroke-width:1.53px;}.cls-20{fill:#edf0f9;}.cls-21{fill:#e2e5f2;}.cls-22{fill:#6e48e5;}.cls-23{fill:#5e42d3;}.cls-24{fill:#ffcea9;}.cls-25{fill:#ededed;}.cls-26{fill:#38226d;}.cls-27{fill:#9c73ff;}.cls-28{fill:#f4f4f4;}.cls-29{fill:#3a2c6d;}.cls-30{isolation:isolate;}</style>
  </defs>
  <title
     id="title837">Startup_SVG</title>
  <ellipse
     class="cls-1"
     cx="71.93"
     cy="278.63998"
     rx="71.93"
     ry="41.529999"
     id="ellipse839" />
  <ellipse
     class="cls-2"
     cx="71.099998"
     cy="274.19998"
     rx="40.119999"
     ry="23.16"
     id="ellipse841" />
  <ellipse
     class="cls-3"
     cx="70.719994"
     cy="265.97998"
     rx="11.44"
     ry="6.6100001"
     id="ellipse843" />
  <rect
     class="cls-3"
     x="60.099998"
     y="178.34999"
     width="22"
     height="86.459999"
     id="rect845" />
  <path
     class="cls-4"
     d="m 59.05,177.37 c 0,0 0.6,17.78 13.25,49.67 0,0 11.78,-25.68 13,-50.21 1.22,-24.53 -26.25,0.54 -26.25,0.54 z"
     id="path847" />
  <polygon
     class="cls-5"
     points="10.85,219.48 46.25,201.73 52.69,156.37 43.6,153.81 14.33,182.29 "
     id="polygon849"
     transform="translate(-4.1748046e-7,-43.38)" />
  <polygon
     class="cls-5"
     points="133.75,219.48 98.22,200.5 91.91,156.37 101,153.81 130.26,182.29 "
     id="polygon851"
     transform="translate(-4.1748046e-7,-43.38)" />
  <ellipse
     class="cls-6"
     cx="71.93"
     cy="173.46001"
     rx="14.55"
     ry="8.3999996"
     id="ellipse853" />
  <polygon
     class="cls-7"
     points="93.94,208.72 49.87,208.44 49.87,200.88 93.94,200.88 "
     id="polygon855"
     transform="translate(-4.1748046e-7,-43.38)" />
  <ellipse
     class="cls-8"
     cx="71.93"
     cy="165.05"
     rx="22.059999"
     ry="12.74"
     id="ellipse857" />
  <ellipse
     class="cls-3"
     cx="71.859993"
     cy="153.58002"
     rx="26.92"
     ry="15.54"
     id="ellipse859" />
  <path
     class="cls-3"
     d="m 100.93,125.9 v 0 c 0,1.25 0,2.48 0,3.67 0,1 0,2 0,3 0,1.35 -0.07,2.64 -0.12,3.9 0,1.57 -0.11,3.06 -0.19,4.49 -0.08,1.43 -0.15,2.83 -0.25,4.12 -0.41,5.65 -0.4,9.81 -1.1,11.44 -3.81,8.91 -16.7,4 -23.06,0.8 -2.35,-1.18 -3.9,-2.15 -3.9,-2.15 h -0.58 c 0,0 -1.84,1 -4.56,2.08 -6.67,2.7 -18.56,7.49 -21.86,-0.76 -0.59,-1.48 -1.18,-6.37 -1.54,-11.49 -0.09,-1.28 -0.17,-2.65 -0.25,-4.11 -0.08,-1.46 -0.12,-2.91 -0.18,-4.48 0,-1.25 -0.07,-2.54 -0.1,-3.88 0,-1 0,-2 0,-3 v 0 -3.67 0 C 43.06,90.969997 46.76,35.179997 58.98,11.369997 c 3.53,-6.89 7.77,-11.1 12.84,-11.349997 v 0 h 0.58 v 0 c 5,0.259997 9.29,4.449997 12.83,11.309997 12.05,23.72 15.92,79.29 15.7,114.570003 z"
     id="path861" />
  <circle
     class="cls-8"
     cx="71.999992"
     cy="82.829994"
     r="10.17"
     id="circle863" />
  <path
     class="cls-6"
     d="m 72,94.489997 a 11.66,11.66 0 1 1 11.66,-11.66 11.67,11.67 0 0 1 -11.66,11.66 z m 0,-20.34 a 8.68,8.68 0 1 0 8.67,8.68 8.69,8.69 0 0 0 -8.67,-8.68 z"
     id="path865" />
  <circle
     class="cls-8"
     cx="71.999992"
     cy="52.930004"
     r="10.17"
     id="circle867" />
  <path
     class="cls-6"
     d="m 72,64.619997 a 11.67,11.67 0 1 1 11.66,-11.69 11.68,11.68 0 0 1 -11.66,11.69 z m 0,-20.34 a 8.68,8.68 0 1 0 8.67,8.67 8.68,8.68 0 0 0 -8.67,-8.69 z"
     id="path869" />
  <path
     class="cls-5"
     d="m 100.93,146.01 c 0,1.25 0,2.48 0,3.68 -1,3.3 -3.72,6.46 -8.14,9 -11.46,6.61 -30,6.61 -41.51,0 -4.42,-2.56 -7.13,-5.73 -8.14,-9 v 0 -3.67 c 1,3.36 3.7,6.56 8.18,9.15 11.47,6.61 30.05,6.61 41.51,0 4.39,-2.62 7.17,-5.81 8.1,-9.16 z"
     id="path871" />
  <path
     class="cls-5"
     d="m 100.84,151.83 c 0,1.34 -0.07,2.64 -0.12,3.89 -1.12,3.12 -3.78,6.09 -8,8.51 -11.46,6.62 -30,6.62 -41.51,0 -4.21,-2.44 -6.87,-5.43 -8,-8.57 0,-1.25 -0.07,-2.54 -0.1,-3.87 1,3.26 3.73,6.36 8.09,8.88 11.47,6.62 30.05,6.62 41.51,0 4.38,-2.51 7.08,-5.6 8.13,-8.84 z"
     id="path873" />
  <path
     class="cls-5"
     d="m 100.53,141.5 c -1.21,2.93 -3.81,5.72 -7.78,8 -11.46,6.61 -30,6.61 -41.51,0 -4,-2.32 -6.6,-5.12 -7.81,-8.08 0.08,1.46 0.16,2.83 0.25,4.11 1.29,2.76 3.81,5.36 7.56,7.53 a 39.77,39.77 0 0 0 15.84,4.72 50.54,50.54 0 0 0 9,0.07 40.14,40.14 0 0 0 16.63,-4.79 c 3.72,-2.15 6.23,-4.72 7.53,-7.45 z"
     id="path875" />
  <path
     class="cls-5"
     d="m 85.05,11.349997 a 44.73,44.73 0 0 1 -26.25,0 C 62.33,4.459997 66.57,0.249997 71.64,0 v 0 h 0.58 v 0 c 5.05,0.299997 9.29,4.489997 12.83,11.349997 z"
     id="path877" />
  <rect
     class="cls-5"
     x="69.799995"
     y="110.51"
     width="4.9899998"
     height="65.510002"
     id="rect879" />
</svg>
