<?xml version="1.0" encoding="UTF-8" standalone="no"?>
<svg
   xmlns:dc="http://purl.org/dc/elements/1.1/"
   xmlns:cc="http://creativecommons.org/ns#"
   xmlns:rdf="http://www.w3.org/1999/02/22-rdf-syntax-ns#"
   xmlns:svg="http://www.w3.org/2000/svg"
   xmlns="http://www.w3.org/2000/svg"
   xmlns:sodipodi="http://sodipodi.sourceforge.net/DTD/sodipodi-0.dtd"
   xmlns:inkscape="http://www.inkscape.org/namespaces/inkscape"
   viewBox="0 0 215.52 220.8421"
   version="1.1"
   id="svg1242"
   sodipodi:docname="5.svg"
   inkscape:version="1.0.1 (c497b03c, 2020-09-10)"
   width="57.022999mm"
   height="58.431137mm">
  <metadata
     id="metadata1246">
    <rdf:RDF>
      <cc:Work
         rdf:about="">
        <dc:format>image/svg+xml</dc:format>
        <dc:type
           rdf:resource="http://purl.org/dc/dcmitype/StillImage" />
        <dc:title>Marketing_strategy_SVG</dc:title>
      </cc:Work>
    </rdf:RDF>
  </metadata>
  <sodipodi:namedview
     pagecolor="#ffffff"
     bordercolor="#666666"
     borderopacity="1"
     objecttolerance="10"
     gridtolerance="10"
     guidetolerance="10"
     inkscape:pageopacity="0"
     inkscape:pageshadow="2"
     inkscape:window-width="1440"
     inkscape:window-height="635"
     id="namedview1244"
     showgrid="false"
     inkscape:zoom="0.49908293"
     inkscape:cx="-364.03258"
     inkscape:cy="111.25926"
     inkscape:window-x="0"
     inkscape:window-y="25"
     inkscape:window-maximized="0"
     inkscape:current-layer="Слой_1-2"
     inkscape:document-rotation="0"
     units="mm"
     fit-margin-top="0"
     fit-margin-left="0"
     fit-margin-right="0"
     fit-margin-bottom="0" />
  <defs
     id="defs835">
    <style
       id="style833">.cls-1,.cls-15,.cls-4{fill:#d6d8e5;}.cls-1{opacity:0.4;}.cls-2{fill:#b1b4c4;}.cls-3{fill:#9ea2b2;}.cls-5{fill:#f4f4f4;}.cls-6{fill:#9acc12;}.cls-7{fill:#e8bc05;}.cls-8{fill:#ef6848;}.cls-9{fill:#be4aed;}.cls-10{fill:#543526;}.cls-11{fill:#1b96ea;}.cls-12{fill:#ff5050;}.cls-13{fill:#32cec3;}.cls-14{fill:none;stroke:#d6d8e5;stroke-miterlimit:10;stroke-width:1.42px;}.cls-15{opacity:0.3;}.cls-16{fill:#dd990e;}.cls-17{fill:#f9cb07;}.cls-18{fill:#cc8b09;}.cls-19{fill:#e8a30a;}.cls-20{fill:#f9ca06;}.cls-21{fill:#3a2c6d;}.cls-22{fill:#ffcea9;}.cls-23{fill:#38226d;}.cls-24{fill:#9c73ff;}.cls-25{fill:#8c50ff;}.cls-26{fill:#ededed;}.cls-27{fill:#d33d3d;}.cls-28{fill:#ff4d4d;}.cls-29{fill:#2b303f;}</style>
  </defs>
  <title
     id="title837">Marketing_strategy_SVG</title>
  <g
     id="Слой_1-2"
     data-name="Слой 1"
     transform="translate(-88.126634,-152.59003)">
    <path
       class="cls-1"
       d="m 278.96663,372.54665 -113.6,-65.58 a 6.38,6.38 0 0 1 0,-11.05 v 0 a 6.38,6.38 0 0 1 6.38,0 l 113.6,65.63 a 6.38,6.38 0 0 1 -0.73,11.41 v 0 a 6.36,6.36 0 0 1 -5.65,-0.41 z"
       id="path1214" />
    <path
       class="cls-27"
       d="m 229.91663,332.87665 c -40.66,-23.47 -73.73,-80.76 -73.73,-127.7 0,-46.94 33.07,-66 73.73,-42.56 40.66,23.44 73.73,80.75 73.73,127.7 0,46.95 -33.08,66.03 -73.73,42.56 z m 0,-155 c -33.38,-19.27 -60.54,-3.59 -60.54,34.95 0,38.54 27.16,85.57 60.54,104.84 33.38,19.27 60.53,3.6 60.53,-34.94 0,-38.54 -27.15,-85.61 -60.53,-104.88 z"
       id="path1216" />
    <polygon
       class="cls-27"
       points="83.82,129.6 97.33,122.22 95.31,131.48 "
       id="polygon1218"
       transform="translate(83.866634,33.546654)" />
    <path
       class="cls-27"
       d="m 269.48663,344.82665 c 0.33,-0.15 14.77,-8.23 14.77,-8.23 l -11.16,-1.79 z"
       id="path1220" />
    <ellipse
       class="cls-5"
       cx="64.47393"
       cy="329.32858"
       rx="54.810001"
       ry="94.940002"
       transform="rotate(-30)"
       id="ellipse1222" />
    <path
       class="cls-28"
       d="m 220.50663,338.10665 c -40.64,-23.48 -73.73,-80.76 -73.73,-127.71 0,-46.95 33.08,-66 73.73,-42.56 40.65,23.44 73.73,80.76 73.73,127.7 0,46.94 -33.07,66.01 -73.73,42.57 z m 0,-155 c -33.37,-19.27 -60.53,-3.6 -60.53,34.94 0,38.54 27.16,85.58 60.53,104.85 33.37,19.27 60.54,3.59 60.54,-34.95 0,-38.54 -27.18,-85.6 -60.54,-104.87 z"
       id="path1224" />
    <path
       class="cls-28"
       d="m 220.50663,305.70665 c -25.18,-14.54 -45.64,-50.03 -45.64,-79.11 0,-29.08 20.49,-40.91 45.67,-26.37 25.18,14.54 45.68,50 45.68,79.11 0,29.11 -20.52,40.92 -45.71,26.37 z m 0,-90.24 c -17.91,-10.34 -32.48,-1.93 -32.48,18.75 0,20.68 14.57,45.92 32.48,56.26 17.91,10.34 32.48,1.92 32.48,-18.76 0,-20.68 -14.57,-45.91 -32.48,-56.25 z"
       id="path1226" />
    <path
       class="cls-28"
       d="m 220.50663,273.82665 c -10,-5.75 -18.06,-19.79 -18.06,-31.29 0,-11.5 8.1,-16.18 18.06,-10.43 9.96,5.75 18.07,19.79 18.07,31.29 0,11.5 -8.1,16.15 -18.07,10.43 z m 0,-26.48 c -2.68,-1.55 -4.87,-0.29 -4.87,2.81 a 10.79,10.79 0 0 0 4.87,8.43 c 2.69,1.55 4.87,0.29 4.87,-2.81 a 10.76,10.76 0 0 0 -4.87,-8.43 z"
       id="path1228" />
    <polygon
       class="cls-29"
       points="26.22,281.67 13.49,289.58 11.02,290.9 4.26,290.99 "
       id="polygon1230"
       transform="translate(83.866634,33.546654)" />
    <ellipse
       class="cls-19"
       cx="-79.061852"
       cy="330.15607"
       rx="1.41"
       ry="2.4400001"
       transform="rotate(-30)"
       id="ellipse1232" />
    <ellipse
       class="cls-19"
       cx="64.443764"
       cy="330.02509"
       rx="1.41"
       ry="2.4400001"
       transform="rotate(-30)"
       id="ellipse1234" />
    <polygon
       class="cls-29"
       points="31.69,282.7 30.92,284.29 15.64,300.69 14.03,293.96 "
       id="polygon1236"
       transform="translate(83.866634,33.546654)" />
    <path
       class="cls-19"
       d="m 97.866634,327.54665 c 0.15,-0.13 124.149996,-71.81 124.149996,-71.81 l -2.28,-4.3 -124.379996,72 z"
       id="path1238" />
  </g>
</svg>
