<svg xmlns="http://www.w3.org/2000/svg" xmlns:xlink="http://www.w3.org/1999/xlink" version="1.1" width="256" height="256" viewBox="0 0 256 256" xml:space="preserve">
<defs>
</defs>
<g style="stroke: none; stroke-width: 0; stroke-dasharray: none; stroke-linecap: butt; stroke-linejoin: miter; stroke-miterlimit: 10; fill: none; fill-rule: nonzero; opacity: 1;" transform="translate(1.4065934065934016 1.4065934065934016) scale(2.81 2.81)" >
	<path d="M 35.813 54.013 H 4.514 C 2.025 54.013 0 51.987 0 49.498 V 4.514 C 0 2.025 2.025 0 4.514 0 h 31.299 c 2.489 0 4.514 2.025 4.514 4.514 v 44.984 C 40.328 51.987 38.303 54.013 35.813 54.013 z" style="stroke: none; stroke-width: 1; stroke-dasharray: none; stroke-linecap: butt; stroke-linejoin: miter; stroke-miterlimit: 10; fill: rgb(84,192,235); fill-rule: nonzero; opacity: 1;" transform=" matrix(1 0 0 1 0 0) " stroke-linecap="round" />
	<path d="M 35.813 90 H 4.514 C 2.025 90 0 87.975 0 85.485 V 69.741 c 0 -2.489 2.025 -4.515 4.514 -4.515 h 31.299 c 2.489 0 4.514 2.025 4.514 4.515 v 15.744 C 40.328 87.975 38.303 90 35.813 90 z" style="stroke: none; stroke-width: 1; stroke-dasharray: none; stroke-linecap: butt; stroke-linejoin: miter; stroke-miterlimit: 10; fill: rgb(248,182,76); fill-rule: nonzero; opacity: 1;" transform=" matrix(1 0 0 1 0 0) " stroke-linecap="round" />
	<path d="M 85.485 90 H 54.187 c -2.489 0 -4.515 -2.025 -4.515 -4.515 V 40.501 c 0 -2.489 2.025 -4.514 4.515 -4.514 h 31.299 c 2.489 0 4.515 2.025 4.515 4.514 v 44.984 C 90 87.975 87.975 90 85.485 90 z" style="stroke: none; stroke-width: 1; stroke-dasharray: none; stroke-linecap: butt; stroke-linejoin: miter; stroke-miterlimit: 10; fill: rgb(241,84,63); fill-rule: nonzero; opacity: 1;" transform=" matrix(1 0 0 1 0 0) " stroke-linecap="round" />
	<path d="M 85.485 24.773 H 54.187 c -2.489 0 -4.515 -2.025 -4.515 -4.515 V 4.514 C 49.672 2.025 51.697 0 54.187 0 h 31.299 C 87.975 0 90 2.025 90 4.514 v 15.745 C 90 22.748 87.975 24.773 85.485 24.773 z" style="stroke: none; stroke-width: 1; stroke-dasharray: none; stroke-linecap: butt; stroke-linejoin: miter; stroke-miterlimit: 10; fill: rgb(94,203,88); fill-rule: nonzero; opacity: 1;" transform=" matrix(1 0 0 1 0 0) " stroke-linecap="round" />
</g>
</svg>